// SSTR - Sample start
<region> sample=KEPSREC021.flac
pan=-32
key=0
pitch_keycenter=21
ampeg_release=0.900

<region> sample=KEPSREC021.flac
pan=-31
key=1
pitch_keycenter=21
ampeg_release=0.900

<region> sample=KEPSREC021.flac
pan=-31
key=2
pitch_keycenter=21
ampeg_release=0.900

<region> sample=KEPSREC021.flac
pan=-30
key=3
pitch_keycenter=21
ampeg_release=0.900

<region> sample=KEPSREC021.flac
pan=-30
key=4
pitch_keycenter=21
ampeg_release=0.900

<region> sample=KEPSREC021.flac
pan=-29
key=5
pitch_keycenter=21
ampeg_release=0.900

<region> sample=KEPSREC021.flac
pan=-29
key=6
pitch_keycenter=21
ampeg_release=0.900

<region> sample=KEPSREC021.flac
pan=-28
key=7
pitch_keycenter=21
ampeg_release=0.900

<region> sample=KEPSREC021.flac
pan=-28
key=8
pitch_keycenter=21
ampeg_release=0.900

<region> sample=KEPSREC021.flac
pan=-27
key=9
pitch_keycenter=21
ampeg_release=0.900

<region> sample=KEPSREC021.flac
pan=-27
key=10
pitch_keycenter=21
ampeg_release=0.900

<region> sample=KEPSREC021.flac
pan=-26
key=11
pitch_keycenter=21
ampeg_release=0.900

<region> sample=KEPSREC021.flac
pan=-26
key=12
pitch_keycenter=21
ampeg_release=0.900

<region> sample=KEPSREC021.flac
pan=-25
key=13
pitch_keycenter=21
ampeg_release=0.900

<region> sample=KEPSREC021.flac
pan=-25
key=14
pitch_keycenter=21
ampeg_release=0.900

<region> sample=KEPSREC021.flac
pan=-24
key=15
pitch_keycenter=21
ampeg_release=0.900

<region> sample=KEPSREC021.flac
pan=-24
key=16
pitch_keycenter=21
ampeg_release=0.900

<region> sample=KEPSREC021.flac
pan=-23
key=17
pitch_keycenter=21
ampeg_release=0.900

<region> sample=KEPSREC021.flac
pan=-23
key=18
pitch_keycenter=21
ampeg_release=0.900

<region> sample=KEPSREC021.flac
pan=-22
key=19
pitch_keycenter=21
ampeg_release=0.900

<region> sample=KEPSREC021.flac
pan=-22
key=20
pitch_keycenter=21
ampeg_release=0.900

<region> sample=KEPSREC021.flac
pan=-21
key=21
ampeg_release=0.900

<region> sample=KEPSREC022.flac
pan=-21
key=22
ampeg_release=0.900

<region> sample=KEPSREC023.flac
pan=-20
key=23
ampeg_release=0.900

<region> sample=KEPSREC024.flac
pan=-20
key=24
ampeg_release=0.900

<region> sample=KEPSREC025.flac
pan=-19
key=25
ampeg_release=0.900

<region> sample=KEPSREC026.flac
pan=-19
key=26
ampeg_release=0.900

<region> sample=KEPSREC027.flac
pan=-18
key=27
ampeg_release=0.900

<region> sample=KEPSREC028.flac
pan=-18
key=28
ampeg_release=0.900

<region> sample=KEPSREC029.flac
pan=-17
key=29
ampeg_release=0.900

<region> sample=KEPSREC030.flac
pan=-17
key=30
ampeg_release=0.900

<region> sample=KEPSREC031.flac
pan=-16
key=31
ampeg_release=0.900

<region> sample=KEPSREC032.flac
pan=-16
key=32 
ampeg_release=0.900

<region> sample=KEPSREC033.flac
pan=-15
key=33
ampeg_release=0.900

<region> sample=KEPSREC034.flac
pan=-15
key=34
ampeg_release=0.900

<region> sample=KEPSREC035.flac
pan=-14
key=35
ampeg_release=0.900

<region> sample=KEPSREC036.flac
pan=-14
key=36
ampeg_release=0.900

<region> sample=KEPSREC037.flac
pan=-13
key=37
ampeg_release=0.900

<region> sample=KEPSREC038.flac
pan=-13
key=38
ampeg_release=0.900

<region> sample=KEPSREC039.flac
pan=-12
key=39
ampeg_release=0.900

<region> sample=KEPSREC040.flac
pan=-12
key=40
ampeg_release=0.900

<region> sample=KEPSREC041.flac
pan=-11
key=41
ampeg_release=0.900

<region> sample=KEPSREC042.flac
pan=-11
key=42
ampeg_release=0.900

<region> sample=KEPSREC043.flac
pan=-10
key=43
ampeg_release=0.900

<region> sample=KEPSREC044.flac
pan=-10
key=44
ampeg_release=0.900

<region> sample=KEPSREC045.flac
pan=-9
key=45
ampeg_release=0.900

<region> sample=KEPSREC046.flac
pan=-9
key=46
ampeg_release=0.900

<region> sample=KEPSREC047.flac
pan=-8
key=47
ampeg_release=0.900

<region> sample=KEPSREC048.flac
pan=-8
key=48
ampeg_release=0.900

<region> sample=KEPSREC049.flac
pan=-7
key=49
ampeg_release=0.900

<region> sample=KEPSREC050.flac
pan=-7
key=50
ampeg_release=0.900

<region> sample=KEPSREC051.flac
pan=-6
key=51
ampeg_release=0.900

<region> sample=KEPSREC052.flac
pan=-6
key=52
ampeg_release=0.900

<region> sample=KEPSREC053.flac
pan=-5
key=53
ampeg_release=0.900

<region> sample=KEPSREC054.flac
pan=-5
key=54
ampeg_release=0.900

<region> sample=KEPSREC055.flac
pan=-4
key=55
ampeg_release=0.900

<region> sample=KEPSREC056.flac
pan=-4
key=56
ampeg_release=0.900

<region> sample=KEPSREC057.flac
pan=-3
key=57
ampeg_release=0.900

<region> sample=KEPSREC058.flac
pan=-3
key=58
ampeg_release=0.900

<region> sample=KEPSREC059.flac
pan=-2
key=59
ampeg_release=0.900

<region> sample=KEPSREC060.flac
pan=-2
key=60
ampeg_release=0.900

<region> sample=KEPSREC061.flac
pan=-1
key=61
ampeg_release=0.900

<region> sample=KEPSREC062.flac
pan=-1
key=62
ampeg_release=0.900

<region> sample=KEPSREC063.flac
pan=0
key=63
ampeg_release=0.900

<region> sample=KEPSREC064.flac
pan=0
key=64
ampeg_release=0.900

<region> sample=KEPSREC065.flac
pan=0
key=65
ampeg_release=0.900

<region> sample=KEPSREC066.flac
pan=1
key=66
ampeg_release=0.900

<region> sample=KEPSREC067.flac
pan=1
key=67
ampeg_release=0.900

<region> sample=KEPSREC068.flac
pan=2
key=68
ampeg_release=0.900

<region> sample=KEPSREC069.flac
pan=2
key=69
ampeg_release=0.900

<region> sample=KEPSREC070.flac
pan=3
key=70
ampeg_release=0.900

<region> sample=KEPSREC071.flac
pan=3
key=71
ampeg_release=0.900

<region> sample=KEPSREC072.flac
pan=4
key=72
ampeg_release=1.100

<region> sample=KEPSREC073.flac
pan=4
key=73
ampeg_release=1.300

<region> sample=KEPSREC074.flac
pan=5
key=74
ampeg_release=1.500

<region> sample=KEPSREC075.flac
pan=5
key=75
ampeg_release=1.750

<region> sample=KEPSREC076.flac
pan=6
key=76
ampeg_release=1.750

<region> sample=KEPSREC077.flac
pan=6
key=77
ampeg_release=2.120

<region> sample=KEPSREC078.flac
pan=7
key=78
ampeg_release=2.120

<region> sample=KEPSREC079.flac
pan=7
key=79
ampeg_release=2.120

<region> sample=KEPSREC080.flac
pan=8
key=80
ampeg_release=2.120

<region> sample=KEPSREC081.flac
pan=8
key=81
ampeg_release=2.350

<region> sample=KEPSREC082.flac
pan=9
key=82
ampeg_release=2.350

<region> sample=KEPSREC083.flac
pan=9
key=83
ampeg_release=2.350

<region> sample=KEPSREC084.flac
pan=10
key=84
ampeg_release=2.850

<region> sample=KEPSREC085.flac
pan=10
key=85
ampeg_release=2.850

<region> sample=KEPSREC086.flac
pan=11
key=86
ampeg_release=3.000

<region> sample=KEPSREC087.flac
pan=11
key=87
ampeg_release=3.000

<region> sample=KEPSREC088.flac
pan=12
key=88
ampeg_release=3.000

<region> sample=KEPSREC089.flac
pan=13
key=89
ampeg_release=3.000

<region> sample=KEPSREC090.flac
pan=14
key=90
ampeg_release=3.000

<region> sample=KEPSREC091.flac
pan=14
key=91
ampeg_release=3.000

<region> sample=KEPSREC092.flac
pan=15
key=92
ampeg_release=3.000

<region> sample=KEPSREC093.flac
pan=15
key=93
ampeg_release=3.210

<region> sample=KEPSREC094.flac
pan=16
key=94
ampeg_release=3.210

<region> sample=KEPSREC095.flac
pan=16
key=95
ampeg_release=3.210

<region> sample=KEPSREC096.flac
pan=17
key=96
ampeg_release=3.210

<region> sample=KEPSREC097.flac
pan=17
key=97
ampeg_release=3.210

<region> sample=KEPSREC098.flac
pan=18
key=98
ampeg_release=3.210

<region> sample=KEPSREC099.flac
pan=18
key=99
ampeg_release=3.210

<region> sample=KEPSREC100.flac
pan=19
key=100
ampeg_release=3.500

<region> sample=KEPSREC101.flac
pan=19
key=101
ampeg_release=3.500

<region> sample=KEPSREC102.flac
pan=20
key=102
ampeg_release=3.500

<region> sample=KEPSREC103.flac
pan=20
key=103
ampeg_release=3.500

<region> sample=KEPSREC104.flac
pan=21
key=104
ampeg_release=3.500

<region> sample=KEPSREC105.flac
pan=21
key=105
ampeg_release=3.500

<region> sample=KEPSREC106.flac
pan=22
key=106
ampeg_release=3.500

<region> sample=KEPSREC107.flac
pan=22
key=107
ampeg_release=3.500

<region> sample=KEPSREC108.flac
pan=23
key=108
pitch_keycenter=108
ampeg_release=3.500

<region> sample=KEPSREC108.flac
pan=23
key=109
pitch_keycenter=108
ampeg_release=3.500

<region> sample=KEPSREC108.flac
pan=24
key=110
pitch_keycenter=108
ampeg_release=3.500

<region> sample=KEPSREC108.flac
pan=24
key=111
pitch_keycenter=108
ampeg_release=3.500

<region> sample=KEPSREC108.flac
pan=25
key=112
pitch_keycenter=108
ampeg_release=3.500

<region> sample=KEPSREC108.flac
pan=25
key=113
pitch_keycenter=108
ampeg_release=3.500

<region> sample=KEPSREC108.flac
pan=26
key=114
pitch_keycenter=108
ampeg_release=3.500

<region> sample=KEPSREC108.flac
pan=26
key=115
pitch_keycenter=108
ampeg_release=3.500

<region> sample=KEPSREC108.flac
pan=27
key=116
pitch_keycenter=108
ampeg_release=3.500

<region> sample=KEPSREC108.flac
pan=27
key=117
pitch_keycenter=108
ampeg_release=3.500

<region> sample=KEPSREC108.flac
pan=28
key=118
pitch_keycenter=108
ampeg_release=3.500

<region> sample=KEPSREC108.flac
pan=28
key=119
pitch_keycenter=108
ampeg_release=3.500

<region> sample=KEPSREC108.flac
pan=29
key=120
pitch_keycenter=108
ampeg_release=3.500

<region> sample=KEPSREC108.flac
pan=29
key=121
pitch_keycenter=108
ampeg_release=3.500

<region> sample=KEPSREC108.flac
pan=30
key=122
pitch_keycenter=108
ampeg_release=3.500

<region> sample=KEPSREC108.flac
pan=30
key=123
pitch_keycenter=108
ampeg_release=3.500

<region> sample=KEPSREC108.flac
pan=31
key=124
pitch_keycenter=108
ampeg_release=3.500

<region> sample=KEPSREC108.flac
pan=31
key=125
pitch_keycenter=108
ampeg_release=3.500

<region> sample=KEPSREC108.flac
pan=32
key=126
pitch_keycenter=108
ampeg_release=3.500

<region> sample=KEPSREC108.flac
pan=32
key=127
pitch_keycenter=108
ampeg_release=3.500
// ESTR - Sample end